<?xml version="1.0" encoding="UTF-8" standalone="no"?>
<!-- Created with Inkscape (http://www.inkscape.org/) -->

<svg
   width="210mm"
   height="297mm"
   viewBox="0 0 210 297"
   version="1.1"
   id="svg8"
   inkscape:version="1.1.1 (3bf5ae0d25, 2021-09-20)"
   sodipodi:docname="desenhov2.svg"
   xmlns:inkscape="http://www.inkscape.org/namespaces/inkscape"
   xmlns:sodipodi="http://sodipodi.sourceforge.net/DTD/sodipodi-0.dtd"
   xmlns="http://www.w3.org/2000/svg"
   xmlns:svg="http://www.w3.org/2000/svg"
   xmlns:rdf="http://www.w3.org/1999/02/22-rdf-syntax-ns#"
   xmlns:cc="http://creativecommons.org/ns#"
   xmlns:dc="http://purl.org/dc/elements/1.1/">
  <defs
     id="defs2" />
  <sodipodi:namedview
     id="base"
     pagecolor="#ffffff"
     bordercolor="#666666"
     borderopacity="1.0"
     inkscape:pageopacity="0.0"
     inkscape:pageshadow="2"
     inkscape:zoom="0.69882038"
     inkscape:cx="380.64145"
     inkscape:cy="285.48108"
     inkscape:document-units="mm"
     inkscape:current-layer="layer8"
     showgrid="true"
     inkscape:window-width="1366"
     inkscape:window-height="705"
     inkscape:window-x="-8"
     inkscape:window-y="-8"
     inkscape:window-maximized="1"
     inkscape:pagecheckerboard="0"
     guidecolor="#0000ff"
     guideopacity="0.9254902"
     guidehicolor="#ff0000"
     guidehiopacity="0.93333333">
    <inkscape:grid
       type="xygrid"
       id="grid1319"
       spacingx="4.2333333"
       spacingy="8.4666667"
       empcolor="#ff3f48"
       empopacity="0.53333333"
       enabled="true" />
  </sodipodi:namedview>
  <metadata
     id="metadata5">
    <rdf:RDF>
      <cc:Work
         rdf:about="">
        <dc:format>image/svg+xml</dc:format>
        <dc:type
           rdf:resource="http://purl.org/dc/dcmitype/StillImage" />
      </cc:Work>
    </rdf:RDF>
  </metadata>
  <g
     inkscape:groupmode="layer"
     id="layer10"
     inkscape:label="fundo512"
     style="display:inline"
     sodipodi:insensitive="true">
    <rect
       style="opacity:0.91;fill:none;stroke:#000000;stroke-width:0.284552;stroke-linecap:round;stroke-miterlimit:4.1;stroke-dasharray:none;stroke-opacity:1"
       id="rect1000"
       width="135.18211"
       height="135.18211"
       x="-135.32439"
       y="-135.32439"
       inkscape:export-xdpi="95.978287"
       inkscape:export-ydpi="95.978287"
       inkscape:export-filename="C:\Users\mauri\OneDrive\desenhosvetoriais\olho#10.png"
       transform="scale(-1)" />
  </g>
  <g
     inkscape:groupmode="layer"
     id="layer16"
     inkscape:label="desenhofundo1"
     style="display:inline"
     sodipodi:insensitive="true">
    <path
       style="fill:#9eda22;fill-opacity:1;stroke:#000000;stroke-width:2.64583;stroke-linecap:butt;stroke-linejoin:miter;stroke-miterlimit:4;stroke-dasharray:none;stroke-opacity:1"
       d="M 8.4666693,25.4 V 8.4666651 H 25.400002 V 25.4 H 42.333335 V 8.4666651 H 59.26667 V 25.4 H 76.2 V 8.4666651 H 93.133328 V 25.4 H 110.06667 V 8.4666651 H 127 V 25.4 42.33333 59.26666 H 110.06667 V 42.33333 H 93.133328 V 59.26666 H 76.2 V 42.33333 H 59.26667 V 59.26666 H 42.333335 V 42.33333 H 25.400002 V 59.26666 H 8.4666693 L 8.4666667,25.4"
       id="path1018"
       inkscape:connector-curvature="0"
       sodipodi:nodetypes="cccccccccccccccccccccccccccccccc"
       inkscape:export-filename="C:\Users\mauri\OneDrive\desenhosvetoriais\desenhofundo#111.png"
       inkscape:export-xdpi="95.978287"
       inkscape:export-ydpi="95.978287" />
    <path
       style="display:inline;fill:#9eda22;fill-opacity:1;stroke:#000000;stroke-width:2.64583;stroke-linecap:butt;stroke-linejoin:miter;stroke-miterlimit:4;stroke-dasharray:none;stroke-opacity:1"
       d="M 127,93.13334 V 76.2 H 110.06667 V 93.13334 H 93.133327 V 76.2 H 76.199997 V 93.13334 H 59.266667 V 76.2 H 42.333335 V 93.13334 H 25.399995 V 76.2 H 8.4666649 V 93.13334 110.06667 127 H 25.399995 v -16.93333 h 16.93334 V 127 h 16.933332 v -16.93333 h 16.93333 V 127 h 16.93333 V 110.06667 H 110.06667 V 127 H 127 V 93.133334"
       id="path1018-5"
       inkscape:connector-curvature="0"
       sodipodi:nodetypes="cccccccccccccccccccccccccccccccc"
       inkscape:export-filename="C:\Users\mauri\OneDrive\desenhosvetoriais\desenhofundo#111.png"
       inkscape:export-xdpi="95.978287"
       inkscape:export-ydpi="95.978287" />
  </g>
  <g
     inkscape:groupmode="layer"
     id="g37245"
     inkscape:label="desenhofundo2"
     style="display:inline"
     sodipodi:insensitive="true">
    <path
       style="fill:#9eda22;fill-opacity:1;stroke:#000000;stroke-width:2.64583;stroke-linecap:butt;stroke-linejoin:miter;stroke-miterlimit:4;stroke-dasharray:none;stroke-opacity:1"
       d="M 127,8.4666666 110.06667,42.333333 93.133332,8.4666666 76.199999,42.333333 59.266666,8.4666666 42.333333,42.333333 25.4,8.4666666 8.4666666,42.333333 16.933333,42.333334 25.4,25.4 42.333334,59.266667 59.266667,25.4 76.2,59.266667 93.133334,25.4 110.06667,59.266667 127,25.4 Z"
       id="path38907"
       inkscape:export-filename="C:\Users\mauri\OneDrive\desenhosvetoriais\desenhofundo#15.png"
       inkscape:export-xdpi="95.978287"
       inkscape:export-ydpi="95.978287" />
    <path
       style="display:inline;fill:#9eda22;fill-opacity:1;stroke:#000000;stroke-width:2.64583;stroke-linecap:butt;stroke-linejoin:miter;stroke-miterlimit:4;stroke-dasharray:none;stroke-opacity:1"
       d="M 127,42.333334 110.06667,76.2 93.133333,42.333334 76.2,76.2 59.266667,42.333334 42.333334,76.2 25.400001,42.333334 8.4666683,76.2 16.933335,76.200001 25.400001,59.266667 42.333335,93.133334 59.266668,59.266667 76.200001,93.133334 93.133335,59.266667 110.06667,93.133334 127,59.266667 Z"
       id="path38907-6"
       inkscape:export-filename="C:\Users\mauri\OneDrive\desenhosvetoriais\desenhofundo#15.png"
       inkscape:export-xdpi="95.978287"
       inkscape:export-ydpi="95.978287" />
    <path
       style="display:inline;fill:#9eda22;fill-opacity:1;stroke:#000000;stroke-width:2.64583;stroke-linecap:butt;stroke-linejoin:miter;stroke-miterlimit:4;stroke-dasharray:none;stroke-opacity:1"
       d="M 127,76.200001 110.06667,110.06667 93.133334,76.200001 76.2,110.06667 59.266667,76.200001 42.333334,110.06667 25.400001,76.200001 8.4666673,110.06667 H 16.933334 L 25.400001,93.133334 42.333335,127 59.266668,93.133334 76.200001,127 93.133334,93.133334 110.06667,127 127,93.133334 Z"
       id="path38907-8"
       inkscape:export-filename="C:\Users\mauri\OneDrive\desenhosvetoriais\desenhofundo#15.png"
       inkscape:export-xdpi="95.978287"
       inkscape:export-ydpi="95.978287" />
  </g>
  <g
     inkscape:groupmode="layer"
     id="layer11"
     inkscape:label="desenhofundo3"
     style="display:inline"
     sodipodi:insensitive="true">
    <path
       style="fill:#9eda22;fill-opacity:1;stroke:#000000;stroke-width:2.64583;stroke-linecap:butt;stroke-linejoin:miter;stroke-miterlimit:4;stroke-dasharray:none;stroke-opacity:1"
       d="M 122.76666,127 V 8.4666751 h -8.46667 V 118.53333 H 97.366656 V 8.4666751 H 88.899989 V 118.53333 H 71.966656 V 8.4666751 H 63.49999 V 118.53333 H 46.566656 V 8.4666751 H 38.09999 V 118.53333 H 21.166655 V 8.4666751 h -8.46666 V 127 Z"
       id="path41287"
       inkscape:export-filename="C:\Users\mauri\OneDrive\desenhosvetoriais\desenhofundo#13.png"
       inkscape:export-xdpi="95.978287"
       inkscape:export-ydpi="95.978287" />
  </g>
  <g
     inkscape:groupmode="layer"
     id="layer2"
     inkscape:label="corpo"
     style="display:inline"
     sodipodi:insensitive="true">
    <path
       style="fill:#9eda22;fill-opacity:1;stroke:#000000;stroke-width:1.32292;stroke-linecap:butt;stroke-linejoin:miter;stroke-miterlimit:4;stroke-dasharray:none;stroke-opacity:1"
       d="m 45.363774,134.64483 c 0,0 1.483797,-10.57559 3.292838,-15.6541 1.483021,-4.16328 3.887262,-7.95058 6.163038,-11.73913 1.34132,-2.23293 4.05505,-3.87494 4.40218,-6.45653 0.44113,-3.280696 -3.22826,-9.391306 -3.22826,-9.391306 0,0 -2.238635,-2.94975 -3.815219,-3.81521 -1.581243,-0.86802 -4.045956,0.13927 -5.28261,-1.17392 -1.697998,-1.80309 0.580828,-4.43691 -1.173914,-7.33695 -0.226484,-0.37431 0.586957,-1.17392 0.586957,-1.17392 0,0 -0.721606,-0.49698 -0.880435,-0.88043 -0.411802,-0.99417 0,0 0.2583,-2.84081 -1.221113,-0.67095 -2.617918,-0.12712 -2.905387,-1.27367 -0.509151,-2.03071 3.234044,-5.5703 3.234044,-5.5703 0,0 1.606355,-2.26461 2.030733,-3.58631 -0.814687,-1.96668 -1.010345,-2.10535 -1.150298,-3.45717 -0.382283,-3.6925 1.158536,-7.70236 3.521739,-10.56522 2.286465,-2.7699 6.00374,-4.08899 9.3913,-5.28261 3.3674,-1.18651 6.99491,-1.76793 10.56522,-1.76087 4.0689,0.008 8.45357,0.11877 12.03261,2.05435 3.28791,1.77813 6.05061,4.82973 7.63044,8.21739 1.66671,3.57396 2.03748,7.83706 1.46738,11.73913 -0.38627,2.64386 -1.86577,5.03852 -3.22826,7.33696 -1.63632,2.76038 -4.21223,4.88261 -5.86956,7.63043 -1.33389,2.21156 -2.47933,4.57177 -3.22826,7.04348 -0.71822,2.37034 -1.97496,5.16276 -0.91561,7.40153 3.98566,8.423086 5.04966,5.209306 12.06778,17.837606 3.85126,6.92988 6.391954,22.69759 6.391954,22.69759 z"
       id="path827"
       inkscape:connector-curvature="0"
       sodipodi:nodetypes="cssscssscscsccsssssssssssscc"
       inkscape:export-xdpi="95.978287"
       inkscape:export-ydpi="95.978287"
       inkscape:export-filename="C:\Users\mauri\OneDrive\desenhosvetoriais\corpo#10.png" />
  </g>
  <g
     inkscape:label="cabelo1"
     inkscape:groupmode="layer"
     id="layer1"
     style="display:inline"
     sodipodi:insensitive="true">
    <path
       style="fill:#9eda22;fill-opacity:1;stroke:#000000;stroke-width:1.32292;stroke-linecap:butt;stroke-linejoin:miter;stroke-miterlimit:4;stroke-dasharray:none;stroke-opacity:1"
       d="m 49.598463,50.35569 c 0,0 -4.088917,-6.459377 -6.815055,-9.086742 C 40.0736,38.657322 35.340445,38.119368 33.507357,34.832509 31.198913,30.693302 32.75013,20.634475 32.75013,20.634475 c 0,0 10.173505,4.434056 12.872884,8.897433 1.612078,2.665543 -0.229269,6.475981 1.135843,9.27605 1.60339,3.288816 7.761589,7.761589 7.761589,7.761589 z"
       id="path10382"
       sodipodi:nodetypes="csscsscc"
       inkscape:export-filename="C:\Users\mauri\OneDrive\desenhosvetoriais\cabelo#10.png"
       inkscape:export-xdpi="95.978287"
       inkscape:export-ydpi="95.978287" />
  </g>
  <g
     inkscape:groupmode="layer"
     id="layer18"
     inkscape:label="cabelo2"
     style="display:inline"
     sodipodi:insensitive="true">
    <path
       style="fill:#9eda22;fill-opacity:1;stroke:#000000;stroke-width:1.32292;stroke-linecap:butt;stroke-linejoin:miter;stroke-miterlimit:4;stroke-dasharray:none;stroke-opacity:1"
       d="m 54.520446,46.569547 c 0,0 0.154953,-19.670709 -7.19367,-21.770316 C 32.75013,20.634475 30.857059,7.9508986 30.857059,7.9508986 c 0,0 12.395307,0.00457 15.158948,3.2558944 2.76364,3.251329 5.429089,7.969823 7.754734,12.816112 2.325646,4.84629 7.719018,15.688896 9.12345,19.45141 -8.373745,3.095232 -8.373745,3.095232 -8.373745,3.095232"
       id="path13279"
       sodipodi:nodetypes="cscsscc"
       inkscape:export-filename="C:\Users\mauri\OneDrive\desenhosvetoriais\cabelo#10.png"
       inkscape:export-xdpi="95.978287"
       inkscape:export-ydpi="95.978287" />
  </g>
  <g
     inkscape:groupmode="layer"
     id="layer4"
     inkscape:label="cabelo3"
     style="display:inline"
     sodipodi:insensitive="true">
    <path
       style="fill:#9eda22;fill-opacity:1;stroke:#000000;stroke-width:1.32292;stroke-linecap:butt;stroke-linejoin:miter;stroke-miterlimit:4;stroke-dasharray:none;stroke-opacity:1"
       d="m 62.894191,43.474314 c 0,0 -4.076413,-17.081843 -3.45176,-27.004595 0.292545,-4.64714 6.436443,-14.0087265 6.436443,-14.0087265 0,0 3.862551,7.0484325 5.489905,11.5477335 3.306383,9.141472 -3.407527,28.774682 -3.407527,28.774682 z"
       id="path15221"
       sodipodi:nodetypes="cscscc"
       inkscape:export-filename="C:\Users\mauri\OneDrive\desenhosvetoriais\cabelo#10.png"
       inkscape:export-xdpi="95.978287"
       inkscape:export-ydpi="95.978287" />
  </g>
  <g
     inkscape:groupmode="layer"
     id="layer5"
     inkscape:label="cabelo4"
     style="display:inline"
     sodipodi:insensitive="true">
    <path
       style="fill:#9eda22;fill-opacity:1;stroke:#000000;stroke-width:1.32292;stroke-linecap:butt;stroke-linejoin:miter;stroke-miterlimit:4;stroke-dasharray:none;stroke-opacity:1"
       d="m 67.96125,42.783408 c 0,0 5.012872,-0.383372 7.572287,-3e-6 2.960184,0.4434 8.708126,2.650302 8.708126,2.650302 L 85.756119,3.407528 Z"
       id="path17137"
       sodipodi:nodetypes="csccc"
       inkscape:export-filename="C:\Users\mauri\OneDrive\desenhosvetoriais\cabelo#10.png"
       inkscape:export-xdpi="95.978287"
       inkscape:export-ydpi="95.978287" />
  </g>
  <g
     inkscape:groupmode="layer"
     id="layer6"
     inkscape:label="cabelo5"
     style="display:inline"
     sodipodi:insensitive="true">
    <path
       style="fill:#9eda22;fill-opacity:1;stroke:#000000;stroke-width:1.32292;stroke-linecap:butt;stroke-linejoin:miter;stroke-miterlimit:4;stroke-dasharray:none;stroke-opacity:1"
       d="m 84.241663,45.433707 3.028913,3.028913 c 0,0 4.400566,-11.385052 8.140207,-16.091104 3.428076,-4.313972 7.443247,-8.897954 12.683577,-10.601198 3.54884,-1.153466 11.16912,0.757228 11.16912,0.757228 0,0 -12.80598,-10.177737 -19.687941,-8.329513 -5.265479,1.414101 -7.376794,8.200299 -9.843971,13.062191 -2.863648,5.643189 -5.489905,18.173483 -5.489905,18.173483 z"
       id="path19421"
       sodipodi:nodetypes="ccsscssc"
       inkscape:export-filename="C:\Users\mauri\OneDrive\desenhosvetoriais\cabelo#10.png"
       inkscape:export-xdpi="95.978287"
       inkscape:export-ydpi="95.978287" />
  </g>
  <g
     inkscape:groupmode="layer"
     id="layer7"
     inkscape:label="cabelo6"
     style="display:inline"
     sodipodi:insensitive="true">
    <path
       style="fill:#9eda22;fill-opacity:1;stroke:#000000;stroke-width:1.32292;stroke-linecap:butt;stroke-linejoin:miter;stroke-miterlimit:4;stroke-dasharray:none;stroke-opacity:1"
       d="m 87.270576,48.46262 2.839609,4.354063 c 0,0 17.339475,5.157691 24.042005,0.757229 6.29845,-4.135169 11.60521,-14.227819 8.32951,-21.013089 -2.17837,-4.512275 -9.45617,-5.242608 -14.38734,-4.354065 -3.5896,0.646806 -8.708127,6.625751 -8.708127,6.625751 0,0 6.715097,-2.892753 10.033277,-2.082379 2.13499,0.521413 4.83504,1.984449 5.11129,4.164756 0.37439,2.954916 -2.78616,5.597019 -5.3006,7.193671 -6.29962,4.000219 -21.959624,4.354063 -21.959624,4.354063 v 0"
       id="path21028"
       sodipodi:nodetypes="ccssscssscc"
       inkscape:export-filename="C:\Users\mauri\OneDrive\desenhosvetoriais\cabelo#10.png"
       inkscape:export-xdpi="95.978287"
       inkscape:export-ydpi="95.978287" />
  </g>
  <g
     inkscape:groupmode="layer"
     id="layer8"
     inkscape:label="cabelo7"
     style="display:inline">
    <path
       style="fill:#da6e22;fill-opacity:1;stroke:#000000;stroke-width:1.32292;stroke-linecap:butt;stroke-linejoin:miter;stroke-miterlimit:4;stroke-dasharray:none;stroke-opacity:1"
       d="m 90.110185,52.816683 1.514456,6.247135 c 0,0 12.467409,5.328085 15.712489,10.790504 2.8189,4.745038 4.98279,12.030172 1.70376,16.46972 -3.66884,4.967326 -14.079869,8.220369 -18.173479,3.596833 -2.685301,-3.032919 3.786143,-11.547731 3.786143,-11.547731 0,0 -11.311242,8.272203 -10.033278,13.819417 0.722487,3.136074 5.321055,4.181102 8.518821,4.543372 8.639363,0.97874 19.059763,-0.637228 25.177843,-6.815058 6.69879,-6.764205 15.22009,-20.321372 6.05783,-22.90616 C 111.79028,63.464476 90.110185,52.816683 90.110185,52.816683 Z"
       id="path23016"
       sodipodi:nodetypes="ccssscssssc"
       inkscape:export-filename="C:\Users\mauri\OneDrive\desenhosvetoriais\cabelo#10.png"
       inkscape:export-xdpi="95.978287"
       inkscape:export-ydpi="95.978287" />
  </g>
  <g
     inkscape:groupmode="layer"
     id="layer12"
     inkscape:label="fita1"
     style="display:inline"
     sodipodi:insensitive="true">
    <path
       style="fill:#5722da;fill-opacity:1;stroke:#000000;stroke-width:1.32292;stroke-linecap:butt;stroke-linejoin:miter;stroke-miterlimit:4;stroke-dasharray:none;stroke-opacity:1"
       d="m 46.857396,53.966059 2.078492,-3.397399 43.351328,8.779119 -0.04538,2.46776 -0.04538,2.46776 z"
       id="path1006"
       inkscape:connector-curvature="0"
       sodipodi:nodetypes="cccccc"
       inkscape:export-filename="C:\Users\mauri\OneDrive\desenhosvetoriais\olho#10.png"
       inkscape:export-xdpi="95.978287"
       inkscape:export-ydpi="95.978287" />
  </g>
  <g
     inkscape:groupmode="layer"
     id="layer13"
     inkscape:label="fita2"
     style="display:inline"
     sodipodi:insensitive="true">
    <path
       style="fill:#5722da;fill-opacity:1;stroke:#000000;stroke-width:1.32292;stroke-linecap:butt;stroke-linejoin:miter;stroke-miterlimit:4;stroke-dasharray:none;stroke-opacity:1"
       d="m 45.528359,81.875324 c 0,0 -0.272161,2.311109 4e-6,3.21822 0.266671,0.888805 1.138877,2.122309 1.99822,2.472477 6.831392,2.783678 15.585033,-0.789546 22.138435,-4.17624 4.935509,-2.550592 10.785996,-6.205073 11.926347,-11.642386 0.691503,-3.29716 -0.907291,-7.620944 -3.786142,-9.370703 -3.14159,-1.909452 -8.709202,-1.850165 -10.979812,1.041188 -1.890522,2.407356 1.32515,9.086742 1.32515,9.086742 0,0 0.291552,-4.935662 2.082377,-6.152481 1.541706,-1.047549 4.125487,-0.875919 5.58456,0.283962 1.258636,1.000545 1.732544,3.082619 1.32515,4.638024 -1.079699,4.122226 -5.223761,7.19323 -9.086741,8.992087 -6.577367,3.062855 -22.527548,1.60911 -22.527548,1.60911 z"
       id="path34469"
       sodipodi:nodetypes="csssssscssssc"
       inkscape:export-filename="C:\Users\mauri\OneDrive\desenhosvetoriais\olho#10.png"
       inkscape:export-xdpi="95.978287"
       inkscape:export-ydpi="95.978287" />
  </g>
  <g
     inkscape:groupmode="layer"
     id="layer9"
     inkscape:label="olho2"
     style="display:inline"
     sodipodi:insensitive="true">
    <path
       style="fill:none;fill-opacity:1;stroke:#725417;stroke-width:1.323;stroke-linecap:butt;stroke-linejoin:miter;stroke-miterlimit:4;stroke-dasharray:none;stroke-opacity:1"
       d="m 50.568661,62.873624 0.402277,1.632773 c 0,0 -0.572119,-0.07765 -0.709902,-0.709902 -0.133488,-0.612542 0.307625,-0.922871 0.307625,-0.922871 z"
       id="path36369"
       sodipodi:nodetypes="ccsc"
       inkscape:export-filename="C:\Users\mauri\OneDrive\desenhosvetoriais\desenhov2.png"
       inkscape:export-xdpi="95.978287"
       inkscape:export-ydpi="95.978287" />
  </g>
  <g
     inkscape:groupmode="layer"
     id="layer3"
     inkscape:label="olho1"
     style="display:inline"
     sodipodi:insensitive="true">
    <path
       style="fill:none;stroke:#000000;stroke-width:1.32292;stroke-linecap:butt;stroke-linejoin:miter;stroke-miterlimit:4;stroke-dasharray:none;stroke-opacity:1"
       d="m 49.361828,61.714117 5.821195,1.987725 -4.685352,1.561782"
       id="path36200"
       inkscape:export-filename="C:\Users\mauri\OneDrive\desenhosvetoriais\desenhov2.png"
       inkscape:export-xdpi="95.978287"
       inkscape:export-ydpi="95.978287" />
  </g>
</svg>
